<svg xmlns="http://www.w3.org/2000/svg" viewBox="0 0 144 144"><defs><style>.cls-1{fill:#231f20;}.cls-2{fill:#f39a1f;}.cls-3{fill:#f8b85c;}.cls-4{fill:#fdd299;}.cls-5{font-size:37.98px;fill:#fff;font-family:Dosis-ExtraBold, Dosis;font-weight:800;letter-spacing:-0.05em;}</style></defs><title>Asset 6</title><g id="Layer_2" data-name="Layer 2"><g id="Layer_1-2" data-name="Layer 1"><rect class="cls-1" width="144" height="144"/><path class="cls-2" d="M66.07,74.93c0,2.22,2.66,4,5.93,4s5.93-1.81,5.93-4V26.58c0-2.23-2.66-4-5.93-4s-5.93,1.8-5.93,4Z"/><path class="cls-3" d="M57.18,58.81V26.58c0-2.23-2.66-4-5.93-4s-5.93,1.8-5.93,4V58.81c0,2.22,2.65,4,5.93,4S57.18,61,57.18,58.81Z"/><path class="cls-4" d="M30.49,46.72c3.28,0,5.93-1.8,5.93-4V26.58c0-2.23-2.65-4-5.93-4s-5.92,1.8-5.92,4V42.69C24.57,44.92,27.22,46.72,30.49,46.72Z"/><path class="cls-3" d="M98.68,74.93V42.69c0-2.22-2.65-4-5.93-4s-5.93,1.8-5.93,4V74.93c0,2.22,2.66,4,5.93,4S98.68,77.15,98.68,74.93Z"/><path class="cls-4" d="M113.51,54.78c-3.28,0-5.93,1.81-5.93,4V74.93c0,2.22,2.65,4,5.93,4s5.92-1.81,5.92-4V58.81C119.43,56.59,116.78,54.78,113.51,54.78Z"/><text class="cls-5" transform="translate(24.57 121.45) scale(0.93 1)">BUCON</text></g></g></svg>