<?xml version="1.0" encoding="utf-8"?>
<!-- Generator: Adobe Illustrator 23.0.2, SVG Export Plug-In . SVG Version: 6.00 Build 0)  -->
<svg version="1.1" id="Layer_1" xmlns="http://www.w3.org/2000/svg" xmlns:xlink="http://www.w3.org/1999/xlink" x="0px" y="0px"
	 viewBox="0 0 144 144" style="enable-background:new 0 0 144 144;" xml:space="preserve">
<style type="text/css">
	.st0{fill:#F39A1F;}
	.st1{fill:#F8B85C;}
	.st2{fill:#FDD299;}
	.st3{fill:#FFFFFF;}
	.st4{font-family:'Dosis-ExtraBold';}
	.st5{font-size:37.98px;}
	.st6{letter-spacing:-1.1;}
</style>
<title>Asset 6</title>
<g>
	<g id="Layer_1-2">
		<path class="st0" d="M66.1,74.9c0,2.2,2.7,4,5.9,4s5.9-1.8,5.9-4V26.6c0-2.2-2.7-4-5.9-4s-5.9,1.8-5.9,4V74.9z"/>
		<path class="st1" d="M57.2,58.8V26.6c0-2.2-2.7-4-5.9-4s-5.9,1.8-5.9,4v32.2c0,2.2,2.7,4,5.9,4S57.2,61,57.2,58.8z"/>
		<path class="st2" d="M30.5,46.7c3.3,0,5.9-1.8,5.9-4V26.6c0-2.2-2.7-4-5.9-4s-5.9,1.8-5.9,4v16.1C24.6,44.9,27.2,46.7,30.5,46.7z"
			/>
		<path class="st1" d="M98.7,74.9V42.7c0-2.2-2.7-4-5.9-4s-5.9,1.8-5.9,4v32.2c0,2.2,2.7,4,5.9,4S98.7,77.1,98.7,74.9z"/>
		<path class="st2" d="M113.5,54.8c-3.3,0-5.9,1.8-5.9,4v16.2c0,2.2,2.7,4,5.9,4s5.9-1.8,5.9-4V58.8
			C119.4,56.6,116.8,54.8,113.5,54.8z"/>
		<text transform="matrix(0.93 0 0 1 24.5698 121.4501)" class="st3 st4 st5 st6">BUCON</text>
	</g>
</g>
</svg>
