<?xml version="1.0" encoding="utf-8"?>
<!-- Generator: Adobe Illustrator 23.0.2, SVG Export Plug-In . SVG Version: 6.00 Build 0)  -->
<svg version="1.1" id="Layer_1" xmlns="http://www.w3.org/2000/svg" xmlns:xlink="http://www.w3.org/1999/xlink" x="0px" y="0px"
	 viewBox="0 0 144 144" style="enable-background:new 0 0 144 144;" xml:space="preserve">
<style type="text/css">
	.st0{fill:#F39A1F;}
	.st1{fill:#F8B85C;}
	.st2{fill:#FDD299;}
	.st3{enable-background:new    ;}
	.st4{fill:#FFFFFF;}
</style>
<title>Asset 6</title>
<path class="st0" d="M66.1,74.9c0,2.2,2.7,4,5.9,4s5.9-1.8,5.9-4V26.6c0-2.2-2.7-4-5.9-4s-5.9,1.8-5.9,4V74.9z"/>
<path class="st1" d="M57.2,58.8V26.6c0-2.2-2.7-4-5.9-4s-5.9,1.8-5.9,4v32.2c0,2.2,2.7,4,5.9,4S57.2,61,57.2,58.8z"/>
<path class="st2" d="M30.5,46.7c3.3,0,5.9-1.8,5.9-4V26.6c0-2.2-2.7-4-5.9-4s-5.9,1.8-5.9,4v16.1C24.6,44.9,27.2,46.7,30.5,46.7z"/>
<path class="st1" d="M98.7,74.9V42.7c0-2.2-2.7-4-5.9-4s-5.9,1.8-5.9,4v32.2c0,2.2,2.7,4,5.9,4S98.7,77.1,98.7,74.9z"/>
<path class="st2" d="M113.5,54.8c-3.3,0-5.9,1.8-5.9,4V75c0,2.2,2.7,4,5.9,4s5.9-1.8,5.9-4V58.8C119.4,56.6,116.8,54.8,113.5,54.8z"
	/>
<g class="st3">
	<path class="st4" d="M24.6,118.8V94.9c0-0.6,0.2-1,0.7-1.3c0.5-0.3,1-0.5,1.7-0.5h7.1c4.6,0,7,2.2,7,6.7c0,3-1,5-3,5.9
		c1.2,0.5,2.1,1.2,2.7,2c0.6,0.9,0.9,2.2,0.9,4v0.8c0,2.8-0.6,4.8-1.9,6.1c-1.3,1.3-3,1.9-5.1,1.9H27c-0.7,0-1.3-0.2-1.7-0.5
		C24.8,119.6,24.6,119.2,24.6,118.8z M30,103.4h3.7c0.6,0,1.1-0.3,1.5-0.8c0.3-0.5,0.5-1.1,0.5-1.8s-0.2-1.3-0.5-1.8
		c-0.3-0.5-0.8-0.8-1.5-0.8H30V103.4z M30,115.4h3.5c1.9,0,2.8-1.1,2.8-3.4v-0.6c0-2.3-0.9-3.4-2.8-3.4H30V115.4z"/>
	<path class="st4" d="M43.4,111.9v-17c0-0.6,0.3-1,0.8-1.3c0.5-0.3,1.2-0.4,1.9-0.4c0.7,0,1.4,0.2,1.9,0.4c0.5,0.3,0.8,0.7,0.8,1.3
		v17c0,2.5,1.1,3.7,3.3,3.7c2.2,0,3.3-1.2,3.3-3.7v-17c0-0.6,0.3-1,0.8-1.3c0.5-0.3,1.2-0.4,1.9-0.4c0.7,0,1.4,0.2,1.9,0.4
		c0.5,0.3,0.8,0.7,0.8,1.3v17c0,3-0.8,5.3-2.4,6.7c-1.6,1.4-3.7,2.1-6.4,2.1c-2.7,0-4.8-0.7-6.4-2.1
		C44.2,117.2,43.4,114.9,43.4,111.9z"/>
	<path class="st4" d="M63.4,111.9V102c0-3,0.8-5.3,2.3-6.7c1.5-1.4,3.6-2.1,6-2.1c2.6,0,4.6,0.7,6.3,2c1.6,1.3,2.5,3.1,2.5,5.5
		c0,1.1-0.2,1.8-0.6,2.2c-0.4,0.4-1.1,0.6-2.1,0.6c-1.7,0-2.6-0.6-2.7-1.8C75,99.4,74,98.2,72,98.2c-2.1,0-3.1,1.2-3.1,3.7v9.9
		c0,2.5,1.1,3.7,3.2,3.7c0.6,0,1.2-0.1,1.6-0.3c0.4-0.2,0.7-0.6,0.9-1c0.2-0.5,0.3-0.8,0.4-1.1c0.1-0.3,0.1-0.7,0.2-1.2
		c0.1-1.2,1-1.8,2.7-1.8c1,0,1.7,0.2,2.1,0.6c0.4,0.4,0.6,1.1,0.6,2.2c0,2.4-0.8,4.3-2.5,5.7c-1.6,1.4-3.7,2.1-6.3,2.1
		c-2.5,0-4.5-0.7-6-2.1C64.2,117.2,63.4,114.9,63.4,111.9z"/>
	<path class="st4" d="M82,111.9V102c0-3,0.8-5.3,2.3-6.7c1.6-1.4,3.6-2.1,6.2-2.1c2.6,0,4.7,0.7,6.2,2.1c1.6,1.4,2.3,3.7,2.3,6.7
		v9.9c0,3-0.8,5.3-2.3,6.7c-1.6,1.4-3.6,2.1-6.2,2.1c-2.6,0-4.6-0.7-6.2-2.1C82.8,117.2,82,114.9,82,111.9z M87.4,111.9
		c0,2.5,1,3.7,3.1,3.7c2.1,0,3.1-1.2,3.1-3.7V102c0-2.5-1-3.7-3.1-3.7c-2.1,0-3.1,1.2-3.1,3.7V111.9z"/>
	<path class="st4" d="M101.6,118.7V94.9c0-0.6,0.3-1,0.8-1.3s1.2-0.5,1.9-0.5c1,0,1.8,0.2,2.3,0.5c0.5,0.3,1.1,1.1,1.7,2.4l5.6,11.6
		V94.9c0-0.6,0.3-1,0.8-1.3c0.5-0.3,1.2-0.4,1.9-0.4c0.7,0,1.4,0.2,1.9,0.4c0.5,0.3,0.8,0.7,0.8,1.3v23.8c0,0.6-0.3,1-0.8,1.3
		c-0.5,0.3-1.2,0.5-1.9,0.5c-1.5,0-2.5-0.5-3-1.6l-6.6-13v12.7c0,0.6-0.3,1-0.8,1.3c-0.5,0.3-1.2,0.5-1.9,0.5
		c-0.7,0-1.4-0.2-1.9-0.5C101.9,119.7,101.6,119.3,101.6,118.7z"/>
</g>
</svg>
